<?xml version="1.0" encoding="UTF-8"?>
<svg xmlns="http://www.w3.org/2000/svg" viewBox="0 0 1500 1500">
  <defs>
    <style>
      .cls-1 {
        fill: #000;
      }

      .cls-1, .cls-2 {
        stroke-width: 0px;
      }

      .cls-2 {
        fill: #6ff;
      }
    </style>
  </defs>
  <g id="Layer_1" data-name="Layer 1">
    <g>
      <path class="cls-1" d="M1325.2,844.82c-1.94-16.39-9.09-32.04-20.22-44.23.01-.01,0-.02-.02-.03-2.88-4.72-6.26-9.15-10.09-13.17-2.07-2.16-4.22-4.19-6.47-6.07l31.7-76.78-10.03-4.25c-.19-.08-.82-.35-1.86-.76l2.89-6.99-10.03-4.25c-1.91-.82-47.6-19.97-100.78-19.97-38.39,0-70.82,9.95-96.39,29.58-17.6,13.52-28.8,33.48-30.7,54.78-.12,1.34-.2,2.67-.25,4.01-4.65-11.74-11.21-23.47-20.38-34.12-2.84-4.36-6.03-8.62-9.62-12.71-23.73-27.1-59.13-40.83-105.2-40.83s-82.63,13.55-107.48,40.28c-37.88,40.73-35.28,97.14-34.95,102.28.1,3.54,1.46,29.6,18.94,56.61,2.62,4.05,5.7,8.25,9.3,12.47.01.01.02.03.03.04,16.92,25.84,52.3,57.36,124.97,62.06h.14c.19.01,1.95.1,4.96.1,17.57,0,77.47-3.01,110.99-41.78l3.8-4.38-2.19,5.19,9.04,4.67c.23.12,1.09.56,2.53,1.24l-2.57,6.09,9.04,4.67c1.95,1,48.32,24.57,109.06,24.58h.01c24.65,0,48.36-3.95,70.44-11.73,50.69-17.85,64.94-56.44,61.39-86.6ZM1070.32,892.27l-9.38-9.29,1.44-1.66-37.48-37.1h56.81l1.27-9.56c.17-1.29,2.06-16.44-.13-36.81,2.73,4.87,5.97,9.31,9.67,13.19,2.22,3.78,4.76,7.28,7.59,10.45l-29.79,70.78Z"/>
      <path class="cls-1" d="M785.69,672.68h-2.58c14.04-10.91,22.9-26.71,22.9-44.28,0-14.47-6.01-27.76-15.97-38.09-11.2-19.8-34.74-33.47-61.9-33.47-37.98,0-68.87,26.72-68.87,59.55,0,14.47,6.01,27.75,15.98,38.08,3.92,6.93,9.35,13.1,15.92,18.2h-21.43v228.29h0s-17.86-51.45-17.86-51.45l-4.33-12.35-4.02,2.23-.65-1.88-4.33-12.35-11.44,6.36c-2.29,1.27-9.45,4.52-15.64,4.68v-46.3h47.31v-91.79h-9v-12h-38.31v-53.1h-9v-12h-117.32v65.1h-32.34v54.7c-2.16-3.05-4.45-6.02-6.87-8.89,0-.01-.01-.01-.01-.02-25.55-38.4-72.23-64.17-125.49-64.17-80.58,0-146.14,59-146.14,131.52,0,29.75,11.03,57.22,29.61,79.28,25.53,38.44,72.25,64.24,125.53,64.24,80.59,0,146.15-59,146.15-131.52,0-7.27-.67-14.4-1.94-21.35h11.5v40.57c-.12,3.82-.46,40.28,24.68,68.43,2.92,4.66,6.38,9.26,10.49,13.63,18.18,19.35,44.2,29.52,77.36,30.22,0,0,.88.02,2.45.02,7.75,0,21.11-.38,34.73-2.48,13.62-2.1,27.48-5.93,36.25-12.84l1.21-.95h0s6.42,0,6.42,0v12h115.96v-253.83h-9v-12ZM273.58,775.77l19.15,19.92h73.92l10.47-11.24v47.87l-19.41-20.68h-73.66l-1.47,1.6-9,9.77v-47.24Z"/>
    </g>
  </g>
  <g id="Layer_2" data-name="Layer 2">
    <g>
      <path class="cls-2" d="M600.31,844.53s-8.85-4.77-8.85-14.64v-62.98h47.32v-69.79h-47.32v-65.11h-95.32v65.11h-32.34v69.79h32.34v63.74s-3.57,87.06,92.77,89.11c0,0,48.68,1.02,66.38-12.94l-22.81-65.7s-19.57,11.06-32.17,3.4Z"/>
      <rect class="cls-2" x="680.73" y="683.68" width="93.96" height="231.83"/>
      <ellipse class="cls-2" cx="728.13" cy="616.41" rx="57.87" ry="48.55"/>
      <path class="cls-2" d="M937.75,680.02c-140.98,0-131.45,131.06-131.45,131.06,0,0,1.19,100.12,133.96,108.7,0,0,71.15,3.64,107.06-37.89l-50.55-50.04s-22.72,17.87-45.7,17.87-45.45-11.74-48.17-28.51h160.17s18.72-141.19-125.32-141.19ZM900.99,775.17s3.06-30.26,35.87-30.26c35.36,0,37.66,30.26,37.66,30.26h-73.53Z"/>
      <path class="cls-2" d="M1246.73,775.17l-49.66-8.35c-4.03-.68-8.08-1.17-12.14-1.61-5.31-.58-14.33-2.98-11.39-12.76,4.09-13.62,53.79-12.26,97.19,9.02l26.04-63.06s-112.97-47.98-186.17,8.21c-14.88,11.43-24.78,28.35-26.44,47.04-.58,6.47-.26,13.6,1.53,21.22,2.61,11.12,7.7,21.55,15.8,29.6,8.46,8.41,21.77,17.66,41.08,20.91,0,0,27.57,5.45,42.72,6.13,15.15.68,31.66,4.09,31.66,13.11s-22.47,10.55-33.53,9.87-46.81-4.26-76.6-20.6l-26.47,62.89s83.38,43.05,170.81,12.26c85.53-30.13,60-127.15-4.43-133.87Z"/>
      <path class="cls-2" d="M341.33,680.19c-6.81-.95-13.79-1.44-20.9-1.44-69.15,0-126.16,46.31-134.17,106.05-.01.01-.01.02-.01.03-.63,4.73-.96,9.55-.96,14.44,0,66.56,60.5,120.52,135.14,120.52s135.15-53.96,135.15-120.52c0-60.22-49.52-110.13-114.25-119.08ZM387.92,860.28l-34.38-36.64-.68-.72h-63.23l-7.05,7.51-28.02,29.85v-126.64l34.39,37.28h64.59l34.38-37.28v126.64Z"/>
    </g>
  </g>
</svg>