<svg id="Layer_1" data-name="Layer 1" xmlns="http://www.w3.org/2000/svg" xmlns:xlink="http://www.w3.org/1999/xlink" viewBox="0 0 936 332"><defs><style>.cls-1{fill:#fff;}.cls-2{fill:url(#linear-gradient);}</style><linearGradient id="linear-gradient" x1="140.19" y1="336.9" x2="140.19" y2="28.61" gradientUnits="userSpaceOnUse"><stop offset="0" stop-color="#00b7f2"/><stop offset="1" stop-color="#00f2ff"/></linearGradient></defs><path class="cls-1" d="M560.74,125.55v98c0,25.72-17,35.91-42.7,35.91H474.61V89.64H518C543.76,89.64,560.74,99.83,560.74,125.55Zm-43.67-11.16H502.76V234.72h14.31c9.22,0,15.53-3.39,15.53-15.52V129.91C532.6,117.79,526.29,114.39,517.07,114.39Z"/><path class="cls-1" d="M663.42,259.47l-21.59-67.69H627.76v67.69H599.61V89.64h43.91c25.72,0,42.71,10.19,42.71,35.91v30.33c0,16.25-6.8,26.44-18.44,31.54l24.26,72.05Zm-35.66-92h14.8c9.21,0,15.52-3.39,15.52-15.52V129.91c0-12.12-6.31-15.52-15.52-15.52h-14.8Z"/><path class="cls-1" d="M764.89,87.7h1.94c25.72,0,42.7,10.19,42.7,35.91v101.9c0,25.71-17,35.9-42.7,35.9h-1.94c-25.72,0-42.7-10.19-42.7-35.9V123.61C722.19,97.65,739.17,87.7,764.89,87.7Zm1,149c9.22,0,15.53-3.4,15.53-15.53V128c0-12.13-6.31-15.53-15.53-15.53s-15.53,3.4-15.53,15.53v93.16C750.33,233.27,756.64,236.67,765.86,236.67Z"/><path class="cls-1" d="M935,125.55v32.27c0,25.71-17,35.9-42.71,35.9H876.55v65.75H848.4V89.64h43.91C918,89.64,935,99.83,935,125.55Zm-28.15,4.36c0-12.12-6.31-15.52-15.52-15.52h-14.8V169h14.8c9.21,0,15.52-3.4,15.52-15.53Z"/><rect class="cls-1" x="352.31" y="90.02" width="85.05" height="24.79"/><polygon class="cls-1" points="352.31 160.78 380.74 160.78 380.83 160.78 380.83 260.12 409.02 260.12 409.02 160.78 437.36 160.78 437.36 135.99 352.31 135.99 352.31 160.78"/><path class="cls-2" d="M207,55.4C169.25,19,148.28,3.83,148.28,3.83a11.27,11.27,0,0,0-16.19,0S111.13,19,73.37,55.4,1,138.78,1,192.4A139,139,0,0,0,238.5,290.7a138.37,138.37,0,0,0,40.89-98.3C279.39,138.78,244.76,91.78,207,55.4Z"/><path class="cls-1" d="M214.06,205.07a4.16,4.16,0,0,1-4.16,4.16H168.54a4.16,4.16,0,0,0-4.16,4.16v41.39a4.16,4.16,0,0,1-4.15,4.16H120.15a4.16,4.16,0,0,1-4.16-4.16V213.39a4.16,4.16,0,0,0-4.16-4.16H70.47a4.16,4.16,0,0,1-4.16-4.16V165a4.16,4.16,0,0,1,4.16-4.16H209.9a4.16,4.16,0,0,1,4.16,4.16Z"/></svg>